<?xml version="1.0" encoding="UTF-8" standalone="no"?>
<!DOCTYPE svg PUBLIC "-//W3C//DTD SVG 1.1//EN" "http://www.w3.org/Graphics/SVG/1.1/DTD/svg11.dtd">
<svg width="100%" height="100%" viewBox="0 0 64 64" version="1.1" xmlns="http://www.w3.org/2000/svg" xmlns:xlink="http://www.w3.org/1999/xlink" xml:space="preserve" xmlns:serif="http://www.serif.com/" style="fill-rule:evenodd;clip-rule:evenodd;stroke-linejoin:round;stroke-miterlimit:2;">
    <g transform="matrix(0.0109932,-2.18883e-34,-2.18883e-34,-0.0109932,-45.9103,62.4915)">
        <path d="M7010,5299C6911,5280 6815,5214 6757,5128C6703,5045 6687,4983 6692,4876C6696,4780 6715,4722 6766,4649L6790,4614L6749,4569C6576,4383 6487,4117 6487,3785C6487,3556 6522,3386 6609,3195C6638,3132 6640,3124 6624,3115C6581,3089 6556,3064 6544,3034C6526,2991 6526,2887 6544,2851C6558,2824 6558,2823 6525,2811C6507,2805 6478,2784 6462,2766C6400,2695 6414,2541 6486,2493L6514,2475L6452,2469C6346,2459 6284,2399 6272,2294C6266,2235 6285,2186 6331,2147C6379,2105 6428,2090 6513,2090C6575,2090 6580,2088 6601,2059C6628,2021 6650,1949 6650,1898C6650,1792 6565,1642 6430,1509L6343,1424L6348,1254L6353,1083L6306,1061C6254,1035 6219,994 6199,935C6191,913 6177,884 6168,870C6158,856 6145,819 6138,788C6121,709 6145,632 6205,572L6247,530L6174,530C6131,530 6098,525 6094,519C6086,506 6089,35 6097,14C6101,2 6242,0 7094,2L8085,5L8085,258C8085,472 8083,512 8070,520C8062,525 8027,530 7992,530L7929,530L7966,562C7987,580 8011,613 8021,635C8043,683 8045,769 8025,825C8017,847 8010,872 8010,880C8009,970 7908,1080 7827,1080L7803,1080L7791,1424L7763,1444C7709,1483 7610,1583 7581,1629C7494,1765 7502,1960 7598,2063C7621,2088 7630,2090 7696,2090C7816,2090 7884,2125 7921,2205C7944,2254 7945,2299 7925,2348C7894,2421 7823,2470 7749,2470L7708,2470L7739,2499C7779,2537 7790,2568 7790,2646C7790,2741 7752,2799 7679,2815C7655,2820 7650,2825 7656,2838C7661,2848 7666,2896 7668,2946L7671,3037L7638,3072C7620,3091 7599,3109 7592,3111C7583,3114 7590,3138 7615,3198C7652,3286 7680,3389 7700,3505C7716,3604 7714,3857 7696,3960C7687,4007 7680,4051 7680,4058C7680,4064 7677,4070 7673,4070C7668,4070 7591,3987 7501,3885C7410,3783 7334,3700 7331,3700C7321,3700 7210,3801 7210,3810C7210,3815 7300,3920 7410,4044L7611,4269L7579,4332C7542,4405 7487,4488 7438,4544L7403,4584L7438,4629C7503,4715 7514,4752 7515,4880C7515,4989 7513,4998 7483,5061C7396,5238 7201,5336 7010,5299Z" style="fill:white;fill-rule:nonzero;"/>
    </g>
</svg>
