<?xml version="1.0" encoding="UTF-8" standalone="no"?>
<!DOCTYPE svg PUBLIC "-//W3C//DTD SVG 1.1//EN" "http://www.w3.org/Graphics/SVG/1.1/DTD/svg11.dtd">
<svg width="100%" height="100%" viewBox="0 0 64 64" version="1.1" xmlns="http://www.w3.org/2000/svg" xmlns:xlink="http://www.w3.org/1999/xlink" xml:space="preserve" xmlns:serif="http://www.serif.com/" style="fill-rule:evenodd;clip-rule:evenodd;stroke-linejoin:round;stroke-miterlimit:2;">
    <g transform="matrix(0.0102661,0,0,-0.0102661,-65.4872,62.4949)">
        <path d="M9428,5926C9373,5906 9343,5884 9311,5839C9279,5795 9256,5713 9266,5674L9272,5650L8468,5650L8474,5618C8492,5524 8859,4265 8869,4264C8875,4263 8899,4262 8921,4261C8957,4260 8961,4258 8949,4244C8931,4222 8932,4141 8953,4101C8974,4059 8974,4060 8950,4060C8916,4060 8871,4032 8855,4000C8846,3983 8837,3941 8833,3907C8827,3836 8843,3791 8887,3754L8912,3733L8855,3727C8750,3716 8680,3643 8680,3546C8680,3490 8694,3453 8728,3417C8772,3371 8809,3356 8899,3350C8980,3345 8985,3344 9001,3315C9098,3147 9047,2407 8900,1820C8852,1628 8790,1464 8760,1445C8753,1441 8750,1375 8750,1258L8752,1078L8713,1060C8667,1039 8614,979 8604,936C8600,919 8586,888 8572,867C8552,838 8545,811 8542,763C8537,682 8557,625 8612,571L8652,530L8584,530C8546,530 8509,526 8501,521C8489,514 8488,471 8494,264C8498,127 8505,12 8509,7C8513,3 8961,1 9506,2L10495,5L10491,255C10489,402 10484,510 10478,518C10472,525 10444,530 10408,530L10348,530L10379,560C10422,604 10453,693 10446,753C10443,780 10434,815 10425,832C10417,849 10410,877 10410,893C10410,938 10373,1007 10333,1037C10314,1052 10278,1069 10252,1075L10205,1087L10202,1250L10199,1414L10160,1457C10139,1481 10115,1520 10107,1543C10098,1566 10080,1618 10066,1658C9993,1861 9936,2259 9923,2640C9914,2950 9942,3194 10001,3301L10025,3345L10120,3350C10219,3356 10257,3369 10297,3412C10327,3444 10340,3483 10340,3544C10340,3638 10270,3712 10165,3726L10119,3733L10150,3765C10188,3804 10202,3851 10194,3915C10182,4005 10137,4060 10074,4060L10041,4060L10060,4103C10084,4154 10085,4180 10066,4225C10051,4260 10051,4260 10078,4262C10123,4264 10128,4265 10135,4271C10145,4282 10529,5634 10524,5642C10521,5646 10344,5650 10131,5650L9743,5650L9742,5704C9741,5865 9578,5979 9428,5926Z" style="fill:white;fill-rule:nonzero;"/>
    </g>
</svg>
