<?xml version="1.0" encoding="UTF-8" standalone="no"?>
<!DOCTYPE svg PUBLIC "-//W3C//DTD SVG 1.1//EN" "http://www.w3.org/Graphics/SVG/1.1/DTD/svg11.dtd">
<svg width="100%" height="100%" viewBox="0 0 64 64" version="1.1" xmlns="http://www.w3.org/2000/svg" xmlns:xlink="http://www.w3.org/1999/xlink" xml:space="preserve" xmlns:serif="http://www.serif.com/" style="fill-rule:evenodd;clip-rule:evenodd;stroke-linejoin:round;stroke-miterlimit:2;">
    <g transform="matrix(0.0153888,0,0,-0.0153888,-12.1393,61.1618)">
        <path d="M2218,3774C2178,3753 2128,3682 2066,3561C2005,3441 1978,3354 1955,3205C1936,3077 1936,2984 1956,2929C1972,2882 1974,2873 2099,2345C2230,1791 2268,1534 2277,1145L2283,905L2215,886C2135,863 2099,836 2070,774C2043,718 2039,590 2063,544C2079,513 2123,470 2155,452C2171,443 2164,441 2114,440C2020,440 2020,440 2020,218C2020,52 2022,31 2038,17C2055,1 2128,0 2878,0C3687,0 3700,0 3720,20C3739,39 3740,53 3740,220C3740,437 3739,440 3639,440L3577,440L3606,463C3676,517 3700,565 3700,650C3700,720 3682,768 3638,816C3604,852 3584,864 3523,883C3459,902 3450,908 3454,925C3457,936 3462,975 3466,1012L3473,1078L3515,1095C3650,1146 3728,1338 3700,1549C3687,1653 3644,1780 3599,1856C3559,1922 3516,1973 3315,2192C3024,2508 3025,2506 3028,2555C3032,2647 3096,2767 3164,2810C3215,2841 3258,2844 3388,2826C3450,2817 3534,2810 3575,2810C3639,2810 3652,2813 3679,2836C3699,2853 3715,2880 3726,2915C3740,2963 3740,2972 3726,2998C3717,3015 3695,3038 3675,3050C3656,3062 3640,3078 3640,3086C3640,3102 3678,3131 3740,3162C3802,3194 3810,3224 3775,3296C3758,3331 3731,3365 3700,3389C3655,3425 3644,3428 3518,3448C3445,3459 3309,3479 3215,3491C3071,3510 3040,3517 3012,3538C2981,3561 2971,3563 2852,3564C2696,3565 2594,3592 2560,3640C2548,3656 2526,3671 2507,3675C2460,3686 2420,3708 2373,3751C2337,3784 2324,3790 2288,3790C2264,3789 2233,3783 2218,3774Z" style="fill:white;fill-rule:nonzero;"/>
    </g>
</svg>
