<?xml version="1.0" encoding="UTF-8" standalone="no"?>
<!DOCTYPE svg PUBLIC "-//W3C//DTD SVG 1.1//EN" "http://www.w3.org/Graphics/SVG/1.1/DTD/svg11.dtd">
<svg width="100%" height="100%" viewBox="0 0 64 64" version="1.1" xmlns="http://www.w3.org/2000/svg" xmlns:xlink="http://www.w3.org/1999/xlink" xml:space="preserve" xmlns:serif="http://www.serif.com/" style="fill-rule:evenodd;clip-rule:evenodd;stroke-linejoin:round;stroke-miterlimit:2;">
    <g id="Pawn" transform="matrix(0.0196278,0,0,-0.0196278,15.803,59.8466)">
        <path d="M815,2830C612,2787 466,2640 423,2437C391,2283 435,2129 548,2008L592,1961L552,1951C457,1925 390,1844 365,1724C347,1640 346,1528 362,1512C370,1504 409,1500 472,1500L570,1500L565,1473C563,1457 558,1415 555,1379C541,1215 452,1036 309,886C247,820 233,810 203,810C130,810 53,758 19,685C-17,607 0,520 64,455C88,431 121,409 139,405C175,397 181,380 147,380C104,380 100,366 100,194C100,60 103,29 116,16C130,2 212,0 875,0C1538,0 1620,2 1634,16C1647,29 1650,60 1650,194C1650,362 1646,380 1607,380C1597,380 1590,383 1592,388C1622,446 1634,487 1638,550C1644,656 1630,700 1572,752C1433,878 1351,976 1296,1087C1241,1197 1228,1252 1226,1383L1224,1500L1341,1500C1433,1500 1460,1503 1470,1515C1489,1538 1476,1712 1451,1781C1415,1877 1347,1938 1258,1955L1222,1962L1265,2007C1476,2227 1430,2593 1171,2760C1074,2821 917,2853 815,2830ZM880,2787C880,2786 832,2737 773,2680L665,2575L770,2683C867,2782 880,2795 880,2787Z" style="fill:white;fill-rule:nonzero;"/>
    </g>
</svg>
