<?xml version="1.0" encoding="UTF-8" standalone="no"?>
<!DOCTYPE svg PUBLIC "-//W3C//DTD SVG 1.1//EN" "http://www.w3.org/Graphics/SVG/1.1/DTD/svg11.dtd">
<svg width="100%" height="100%" viewBox="0 0 64 64" version="1.1" xmlns="http://www.w3.org/2000/svg" xmlns:xlink="http://www.w3.org/1999/xlink" xml:space="preserve" xmlns:serif="http://www.serif.com/" style="fill-rule:evenodd;clip-rule:evenodd;stroke-linejoin:round;stroke-miterlimit:2;">
    <g transform="matrix(0.00847256,1.27136e-34,1.27136e-34,-0.00847256,-67.722,59.557)">
        <path d="M11542,6488C11534,6480 11530,6438 11530,6363L11530,6250L11416,6250C11332,6250 11300,6246 11291,6236C11283,6227 11280,6166 11282,6039L11285,5855L11408,5852L11530,5849L11530,5650L11135,5650C10881,5650 10740,5646 10740,5640C10740,5635 10799,5424 10871,5173C10943,4921 11029,4618 11062,4500C11096,4382 11127,4279 11133,4273C11138,4266 11159,4260 11180,4260L11218,4260L11213,4197C11209,4149 11212,4126 11225,4101C11234,4083 11240,4067 11238,4066C11236,4065 11220,4058 11202,4050C11149,4029 11113,3979 11105,3916C11096,3844 11103,3818 11145,3771L11180,3733L11124,3727C10922,3706 10885,3444 11072,3365C11094,3357 11139,3350 11179,3350C11243,3350 11251,3348 11266,3325C11336,3219 11344,2894 11289,2460C11236,2036 11129,1594 11049,1465L11017,1415L11031,1081L10993,1065C10940,1043 10903,1005 10883,951C10874,926 10853,881 10838,851C10789,757 10804,657 10880,578L10926,530L10854,530C10805,530 10779,526 10771,516C10763,506 10762,436 10767,254L10775,5L12765,5L12763,259C12761,450 12757,516 12748,522C12741,526 12706,530 12670,530L12605,530L12638,551C12705,594 12738,722 12705,810C12696,835 12685,875 12681,900C12672,953 12651,996 12618,1027C12592,1052 12530,1080 12502,1080C12485,1080 12482,1091 12476,1172C12473,1222 12470,1298 12470,1341C12470,1415 12469,1419 12437,1451C12374,1514 12304,1725 12260,1984C12167,2529 12173,3127 12273,3305L12296,3345L12390,3350C12494,3356 12532,3370 12573,3420C12623,3479 12629,3569 12588,3638C12563,3679 12496,3718 12435,3726C12389,3733 12388,3733 12409,3749C12453,3783 12470,3821 12470,3891C12470,3943 12465,3964 12448,3990C12427,4020 12380,4052 12338,4064C12322,4069 12322,4072 12336,4106C12346,4130 12350,4165 12348,4202C12345,4259 12345,4260 12372,4260C12388,4260 12403,4267 12408,4278C12417,4295 12800,5628 12800,5643C12800,5647 12627,5650 12415,5650L12030,5650L12030,5850L12138,5850C12209,5850 12250,5854 12258,5862C12275,5879 12275,6221 12258,6238C12250,6246 12209,6250 12138,6250L12030,6250L12030,6363C12030,6438 12026,6480 12018,6488C12009,6497 11942,6500 11780,6500C11618,6500 11551,6497 11542,6488Z" style="fill:white;fill-rule:nonzero;"/>
    </g>
</svg>
