<?xml version="1.0" encoding="UTF-8" standalone="no"?>
<!DOCTYPE svg PUBLIC "-//W3C//DTD SVG 1.1//EN" "http://www.w3.org/Graphics/SVG/1.1/DTD/svg11.dtd">
<svg width="100%" height="100%" viewBox="0 0 64 64" version="1.1" xmlns="http://www.w3.org/2000/svg" xmlns:xlink="http://www.w3.org/1999/xlink" xml:space="preserve" xmlns:serif="http://www.serif.com/" style="fill-rule:evenodd;clip-rule:evenodd;stroke-linejoin:round;stroke-miterlimit:2;">
    <g id="rook" transform="matrix(0.0146155,0,0,-0.0146155,-38.8249,59.0387)">
        <path d="M4256,3684C4242,3670 4240,3622 4242,3272L4245,2875L4276,2859L4308,2844L4289,2819C4257,2779 4237,2693 4242,2625C4251,2522 4301,2451 4392,2410L4439,2389L4420,2357C4384,2298 4401,2181 4451,2146C4469,2134 4469,2127 4440,1939C4370,1489 4294,1194 4192,978C4171,932 4150,883 4147,868C4143,854 4123,831 4100,816C4055,786 4041,751 4062,717C4070,705 4080,672 4083,643C4089,587 4110,538 4143,503L4163,480L4107,480C4020,480 4021,483 4021,243C4021,129 4026,28 4031,18C4040,1 4078,0 4843,0C5454,0 5649,3 5658,12C5675,29 5675,451 5658,468C5651,475 5628,480 5607,480L5568,480L5593,510C5635,559 5653,622 5648,693C5642,764 5625,804 5580,849L5548,880L5574,880C5588,880 5600,881 5600,883C5600,885 5570,931 5533,986C5455,1103 5429,1159 5367,1340C5276,1607 5210,1916 5210,2075C5210,2125 5213,2137 5231,2148C5276,2176 5296,2296 5265,2350C5244,2386 5246,2388 5293,2402C5358,2421 5434,2502 5450,2569C5469,2651 5459,2741 5422,2800L5392,2848L5427,2853C5493,2864 5490,2843 5490,3276L5490,3669L5468,3684C5448,3698 5374,3700 4858,3700C4336,3700 4270,3698 4256,3684Z" style="fill:white;fill-rule:nonzero;"/>
    </g>
</svg>
